<svg width="50" height="50" xmlns="http://www.w3.org/2000/svg">
 <g id="Layer_1">
  <title>Layer 1</title>
  <path d="m12.44186,36.86046c-0.23256,0 -0.23256,-0.46511 -0.23256,-0.69767c0,-0.69767 0,-1.39535 0,-2.55814c0,-0.93023 0.1154,-1.83902 0.23256,-2.7907c0.05683,-0.46163 -0.17799,-0.96564 0,-1.39535c0.25172,-0.6077 0.46512,-1.16279 0.46512,-1.39535c0,-0.23256 -0.089,-0.48282 0,-0.69767c0.12586,-0.30385 0.39061,-0.93624 0.46512,-1.39535c0.1178,-0.72592 0.33926,-1.0915 0.46512,-1.39535c0.26699,-0.64457 0.23256,-1.16279 0.23256,-1.86047c0,-0.23256 0,-0.46512 0,-0.69767c0,-0.23256 0,-0.69768 0,-0.93023c0,-0.46512 0,-0.93023 0,-1.16279c0,-0.23256 0.11476,-0.43687 0.23256,-1.16279c0.03725,-0.22956 -0.17799,-0.50052 0,-0.93023c0.12586,-0.30385 0.23256,-0.93023 0.23256,-0.93023c0,-0.23256 0.06812,-0.53323 0.23256,-0.69767c0.16444,-0.16444 0.46512,0 0.46512,0c0.46512,0 0.69767,0 1.16279,0c0.93023,0 1.86046,0 2.7907,0c0.69767,0 1.16279,0 1.39535,0c0.23256,0 0.46512,0 1.16279,0c1.39535,0 3.25581,0 3.95349,0c0.23256,0 0.46512,0 1.39535,0c1.16279,0 2.7907,0 4.65116,0c0.46512,0 0.93023,0 2.09302,0c1.39535,0 2.55814,0 3.02325,0c0.23256,0 0.92057,-0.1161 3.02326,-0.23256c1.16101,-0.0643 1.62791,0 1.86046,0c0.23256,0 0.23256,0.23256 0.23256,0.69767c0,0.23256 -0.39841,0.61207 -0.69767,1.39535c-0.5869,1.53613 -0.23256,1.86047 -0.23256,2.7907c0,0.46511 -0.27636,1.14969 -0.46511,1.86046c-0.30436,1.14609 -0.23256,2.7907 -0.23256,4.88372c0,1.62791 0,2.7907 0,3.48837c0,0.46512 0,0.69767 0,1.86046c0,0.69767 0,1.86047 0,2.55814c0,0.46512 0,0.69767 0,0.93023c0,0 0,0.46511 0,0.93023c0,0.23256 0,0.69767 0,0.93023c0,0 0,0.23256 0,0.46511c0,0.23256 -0.23256,0.23256 -0.93023,0.23256c-1.86047,0 -4.65264,-0.0829 -6.97675,0c-3.26203,0.11635 -4.88372,0.23256 -6.51163,0.23256c-1.62791,0 -3.02326,0 -4.41861,0c-0.93023,0 -1.62791,0 -2.09302,0c-0.46512,0 -1.39535,0 -2.32558,0c-0.93023,0 -0.93023,0 -1.16279,0c-0.23256,0 -0.69767,0 -0.69767,0c-0.46512,-0.23256 -0.69767,-0.23256 -1.39535,-0.23256c-1.16279,0 -1.46346,0.16444 -1.62791,0c-0.16444,-0.16444 0,-0.46512 0,-0.69767c0,-0.69767 0,-1.39535 0,-2.32558l0,-0.46512l0,0" id="svg_1" stroke="#000" fill="none"/>
  <path d="m15.23256,15.93023c0,0 0.07527,-0.12097 0.46512,-0.46512c0.6286,-0.55492 1.14606,-1.07234 1.62791,-1.62791c0.68143,-0.7857 1.2926,-0.81844 2.09302,-1.39535c0.42186,-0.30406 1.40157,-1.10936 1.62791,-1.16279c0.50611,-0.11948 0.46512,-0.46512 0.93023,-0.93023c0.23256,-0.23256 0.62617,-0.74093 0.93023,-1.16279c0.38461,-0.53361 0.58608,-0.77295 0.93023,-1.16279c0.55492,-0.6286 0.72898,-0.65383 1.39535,-1.16279c0.58444,-0.44639 1.16279,-0.93023 1.16279,-0.93023c0.46512,0 0.46512,0.23256 0.69768,0.46512c0.23256,0.23256 0.16607,0.28179 0.69767,0.93023c0.41702,0.50868 0.85894,1.03693 1.16279,1.16279c0.21486,0.089 0.57182,0.16126 0.69768,0.46512c0.089,0.21486 0.13623,0.60135 0.46511,0.93023c0.16444,0.16444 0.41791,0.05965 0.69768,0.23256c0.62558,0.38663 1.66302,0.33363 2.09302,0.93023c0.13598,0.18866 0.62638,0.33926 0.93023,0.46512c0.21485,0.08899 0.90879,0.58052 1.86047,0.69767c0.46163,0.05683 0.85894,0.57182 1.16279,0.69767c0.21486,0.089 0.53323,0.06812 0.69767,0.23256c0.32889,0.32889 0.23256,0.46512 0.69767,0.93023c0.23256,0.23256 -0.09633,0.60135 0.23256,0.93023c0.32889,0.32889 0.69767,0 0.93023,0.23256c0.23256,0.23256 0.48282,0.37612 0.69767,0.46512c0.30385,0.12586 0.93023,0.23256 1.16279,0.23256l0,0" id="svg_2" stroke="#000" fill="none"/>
  <path d="m23.13953,26.39535c0,0.23256 0,0.46512 0,0.69767c0,0.23256 0,0.46512 0,0.69768c0,0.46512 0,0.93023 0,1.39535c0,0.23256 0,0.69768 0,0.69768c0,0.23256 0,0.69767 0,0.93023c0,0.23256 0.1067,0.39382 0.23256,0.69768c0.08899,0.21486 0.23256,0.93023 0.23256,0.93023c0.23256,0 0.93023,0 1.39535,0c0.46512,0 0.46512,0 0.69767,0c0.46512,0 1.16279,0 2.55814,0c0.23256,0 0.46512,0 0.69767,0c0.46512,0 1.39535,0 2.09302,0c0.93023,0 1.86047,0 3.02325,0c0.23256,0 0.53323,0.16444 0.69768,0c0.32889,-0.32889 -0.23256,-1.16279 -0.23256,-1.86047c0,-0.69767 0,-1.39535 0,-1.86047c0,-0.69767 0,-1.39535 0,-1.86046c0,-0.69767 0,-1.16279 0,-1.62791c0,0 -0.1067,-0.16126 -0.23256,-0.46512c-0.089,-0.21486 -0.11308,-0.42413 -0.23256,-0.93023c-0.05343,-0.22634 -0.23256,-1.16279 -0.23256,-1.39535c0,-0.46512 -0.23256,-0.46512 -0.93023,-0.46512c-0.93023,0 -1.62791,0 -2.09302,0c-0.23256,0 -0.47134,0.05343 -0.69768,0c-0.5061,-0.11948 -1.39535,-0.46512 -1.86046,-0.46512c0,0 -0.23256,0 -0.69767,0c-0.69768,0 -1.16279,0 -1.39535,0c-0.23256,0 -0.69767,0 -0.69767,0c-0.23256,0 -0.46512,0 -0.69768,0c-0.23256,0 -0.26007,-0.10974 -0.46512,0c-0.73928,0.39565 -0.46511,0.93023 -0.46511,0.93023c0,0.46511 -0.23256,0.93023 -0.23256,1.16279c0,0.23256 0,0.46512 0,0.69767c0,0 0,0.23256 0,0.46512c0,0.23256 0,0.46512 0,0.46512c0,0.23256 0,0.69767 0,0.93023c0,0.23256 0.17799,0.50052 0,0.93023c-0.12586,0.30385 -0.23256,0.93023 -0.46512,1.16279l0,0.23256" id="svg_3" stroke="#000" fill="none"/>
  <path d="m18.25581,12.67442c-0.23256,0 -0.40955,-0.09672 -1.16279,-0.46512c-0.66063,-0.3231 -1.13216,-0.53223 -2.09302,-0.93023c-0.67943,-0.28143 -1.39535,-0.46512 -1.86047,-0.93023c-0.69767,-0.69767 -0.69767,-0.69767 -0.93023,-0.93023c-0.23256,-0.23256 -0.23256,-0.46512 -0.23256,-0.69767c0,-0.23256 0.04025,-0.43087 0.23256,-0.69767c0.30406,-0.42186 0.14356,-0.48282 0.23256,-0.69767c0.12586,-0.30385 0.46512,-0.46512 0.93023,-0.69767c0,0 0.23256,0 0.46512,-0.23256c0.23256,-0.23256 0.23256,-0.46512 0.46512,-0.46512c0.23256,0 0.46512,0 0.69767,0c0.23256,0 0.27582,0.16106 0.69767,0.46512c0.26681,0.1923 0.22059,0.53458 0.46512,0.93023c0.27339,0.44235 0.65685,0.02276 0.93023,0.46512c0.24453,0.39565 0.245,0.59081 0.69767,0.69767c0.50611,0.11948 0.85894,0.80437 1.16279,0.93023c0.42971,0.17799 0.69768,0.23256 0.93023,0.46512c0.23256,0.23256 0.30067,0.30067 0.46512,0.46512c0.16444,0.16444 0.46512,0.23256 0.46512,0.46512l0.23256,0.23256" id="svg_4" stroke="#000" fill="none"/>
 </g>
</svg>