<svg width="50" height="50" xmlns="http://www.w3.org/2000/svg">
 <g id="Layer_1">
  <title>Layer 1</title>
  <path d="m8.5404,25.31056c0,0 0.31056,0 0.62112,0c0.93168,0 1.79821,0.61809 4.03726,0.93168c0.92267,0.12922 1.86335,0 3.41615,0c1.55279,0 3.10559,0 4.34782,0c0.93168,0 1.86335,0 3.10559,0c1.55279,0 3.41615,0 5.2795,0c1.86335,0 2.79503,0 3.7267,0c0.31056,0 1.86335,0 3.7267,0c2.48447,0 4.8197,0.91965 4.96894,0c0.15731,-0.96939 -1.10904,-1.14269 -2.48447,-1.86335c-0.8699,-0.45579 -2.74868,-1.61803 -4.03726,-2.48447c-1.50274,-1.01044 -2.36811,-1.68125 -3.72671,-2.79503c-0.86594,-0.7099 -1.55279,-1.24224 -2.17391,-1.55279l-0.31056,-0.31056l-0.62112,-0.31056l-0.31056,0" id="svg_1" stroke="#000" fill="none"/>
  <path d="m41.77017,26.86335c-0.31056,0.31056 -0.64476,0.50227 -0.93167,0.62112c-0.40577,0.16807 -0.67058,0.18964 -1.55279,0.62112c-1.00588,0.49196 -2.50835,0.84827 -3.7267,1.24224c-1.59129,0.51455 -2.48447,0.93167 -3.10559,0.93167c-0.62112,0 -0.62112,0 -0.93168,0.31056c-0.31056,0.31056 -0.77774,0.18447 -2.17391,0.93168c-1.54891,0.82895 -2.48447,2.17391 -2.48447,2.17391c-0.31056,0.31056 -0.7636,0.21535 -0.93167,0.62112c-0.23769,0.57384 -0.21535,1.07416 -0.62112,1.24224c-0.28692,0.11885 -0.31056,0.31056 -0.93168,0.93167l0,0l-0.31056,0" id="svg_3" stroke="#000" fill="none"/>
  <polyline stroke-linecap="round" id="svg_4" points="-135.86937341234136,-17.23597760566154 -135.86937341234136,-17.23597760566154 -135.86937341234136,-17.23597760566154 " stroke="#000" fill="none"/>
  <polyline stroke-linecap="round" id="svg_5" points="-127.48428990595139,31.521730190754273 -127.48428990595139,31.521730190754273 -127.48428990595139,31.521730190754273 " stroke="#000" fill="none"/>
 </g>
</svg>