<svg width="50" height="50" xmlns="http://www.w3.org/2000/svg">

 <g>
  <title>Layer 1</title>
  <line stroke="#000" stroke-linecap="undefined" stroke-linejoin="undefined" id="svg_1" y2="309.00002" x2="694.59998" y1="307.00002" x1="121.59999" fill="none"/>
  <line stroke-linecap="undefined" stroke-linejoin="undefined" id="svg_2" y2="240.99999" x2="266.59999" y1="307.99999" x1="123.59999" stroke="#000" fill="none"/>
  <line stroke-linecap="undefined" stroke-linejoin="undefined" id="svg_3" y2="160.99999" x2="455.59999" y1="210.99999" x1="336.59999" stroke="#000" fill="none"/>
  <line stroke-linecap="undefined" stroke-linejoin="undefined" id="svg_4" y2="511.99999" x2="337.59999" y1="312.99999" x1="125.59999" stroke="#000" fill="none"/>
  <line stroke-linecap="undefined" stroke-linejoin="undefined" id="svg_5" y2="-43" x2="576.99998" y1="-44" x1="576.99998" stroke="#000" fill="none"/>
  <line stroke-linecap="undefined" stroke-linejoin="undefined" id="svg_6" y2="-53.21429" x2="-96.07143" y1="-53.21429" x1="-96.42857" stroke="#000" fill="none"/>
  <path id="svg_7" d="m5.71428,28.21428" opacity="NaN" stroke="#000" fill="none"/>
  <path stroke="#000" d="m10.71428,27.5c0.3613,0 0.3613,0 1.08389,0c0.3613,0 0.72259,0 1.80648,0c0.3613,0 0.3613,0 0.72259,0c0.72259,0 1.44518,0 2.52907,0c0.36129,0 1.44518,0 2.52907,0c1.08389,0 2.16777,0 3.61296,0c0.72259,0 1.08389,0 1.08389,0c1.44518,0 2.89036,0 4.69684,0c1.80648,0 3.61296,0 4.33555,0c0.3613,0 1.44518,0 2.89037,0c1.08388,0 1.80648,0 2.52907,0c0,0 0.36129,0 0.72259,0c0.72259,0 0.72259,0 1.44518,0c0.3613,0 0.72259,0 0.72259,0l0.3613,0" id="svg_8" fill="none"/>
  <path d="m11.78571,26.78571c0.35714,0 0.71429,0 1.07143,0c0.71429,0 1.17811,0.37552 1.78571,0c0.67933,-0.41985 0.96194,-0.87815 1.42857,-1.07143c0.32996,-0.13667 1.08098,-0.27509 1.42857,-0.35714c0.77723,-0.18348 0.96194,-0.521 1.42857,-0.71429c0.32996,-0.13667 0.2942,-0.53081 1.07143,-0.71428c0.34759,-0.08205 1.42857,-0.71428 2.14286,-1.07143c0.71429,-0.35714 0.825,-0.12053 1.78572,-0.71429c0.42964,-0.26553 1.43813,-0.63223 1.78572,-0.71428c0.77723,-0.18348 1.17603,-0.10461 1.42857,-0.35714c0.25254,-0.25254 0,-0.35714 0.35714,-0.35714l0,-0.35714l0.35714,0l0.35714,-0.35714" id="svg_9" stroke="#000" fill="none"/>
  <path d="m11.78571,28.21428c0,0 0,0.35714 0,0.71428c0,0.35714 0.38433,0.57761 0.71429,0.71428c0.46663,0.19328 0.3667,0.63223 0.71428,0.71429c0.77723,0.18348 1.07143,0.71428 1.07143,0.71428c0.35714,0.35714 0.71428,0.35714 1.07143,0.71429c0.35714,0.35714 1.28064,0.20921 1.78572,0.71429c0.25254,0.25254 0.10668,0.33876 0.71428,0.71428c0.67933,0.41985 0.521,0.6048 0.71428,1.07143c0.13667,0.32996 0.24766,0.87814 0.71429,1.07143c0.32996,0.13667 0.46175,0.10461 0.71428,0.35714c0.25254,0.25254 0.41048,0.88367 0.71429,1.07143c0.67933,0.41985 0.71428,1.07143 0.71428,1.42857l0,0l0.71428,0.71429l0.35714,0.35714" id="svg_10" stroke="#000" fill="none"/>
 </g>
</svg>